<svg width="16" height="16" viewBox="0 0 16 16" fill="none" xmlns="http://www.w3.org/2000/svg">
<path d="M8 0C7.213 0 6.708 0.592 6.428 1.151C6.15089 1.72829 6.00474 2.35967 6 3V6.691L4 7.691V7.5C4 7.36739 3.94732 7.24021 3.85355 7.14645C3.75979 7.05268 3.63261 7 3.5 7H2.5C2.36739 7 2.24021 7.05268 2.14645 7.14645C2.05268 7.24021 2 7.36739 2 7.5V8.691L0.83 9.276C0.580633 9.40049 0.370884 9.592 0.224278 9.82904C0.0776726 10.0661 9.41502e-06 10.3393 0 10.618L0 12C3.341e-05 12.0726 0.0158677 12.1443 0.0464029 12.2101C0.0769381 12.276 0.121442 12.3344 0.176823 12.3813C0.232204 12.4282 0.297135 12.4625 0.367104 12.4818C0.437073 12.5011 0.510403 12.5049 0.582 12.493L2.213 12.221L2.526 13.158C2.55934 13.2573 2.62303 13.3436 2.70808 13.4048C2.79313 13.466 2.89524 13.4989 3 13.4989C3.10476 13.4989 3.20687 13.466 3.29192 13.4048C3.37697 13.3436 3.44066 13.2573 3.474 13.158L3.879 11.944L6.089 11.575L6.464 13.828L5.146 15.146C5.07589 15.2159 5.02813 15.3051 5.00876 15.4022C4.9894 15.4993 4.9993 15.6 5.03722 15.6915C5.07513 15.7829 5.13936 15.8611 5.22175 15.916C5.30414 15.9709 5.40098 16.0002 5.5 16H10.5C10.599 16.0002 10.6959 15.9709 10.7783 15.916C10.8606 15.8611 10.9249 15.7829 10.9628 15.6915C11.0007 15.6 11.0106 15.4993 10.9912 15.4022C10.9719 15.3051 10.9241 15.2159 10.854 15.146L9.536 13.828L9.911 11.575L12.121 11.944L12.526 13.158C12.5593 13.2573 12.623 13.3436 12.7081 13.4048C12.7931 13.466 12.8952 13.4989 13 13.4989C13.1048 13.4989 13.2069 13.466 13.2919 13.4048C13.377 13.3436 13.4407 13.2573 13.474 13.158L13.787 12.221L15.417 12.493C15.4887 12.5051 15.5621 12.5014 15.6322 12.4821C15.7023 12.4629 15.7674 12.4287 15.8229 12.3817C15.8784 12.3348 15.9229 12.2763 15.9535 12.2104C15.9841 12.1445 16 12.0727 16 12V10.618C16 10.3393 15.9223 10.0661 15.7757 9.82904C15.6291 9.592 15.4194 9.40049 15.17 9.276L14 8.691V7.5C14 7.36739 13.9473 7.24021 13.8536 7.14645C13.7598 7.05268 13.6326 7 13.5 7H12.5C12.3674 7 12.2402 7.05268 12.1464 7.14645C12.0527 7.24021 12 7.36739 12 7.5V7.691L10 6.691V3C10 2.432 9.86 1.729 9.572 1.151C9.292 0.591 8.787 0 8 0Z" fill="#ACDDA9" fill-opacity="0.61"/>
<path d="M6.02236 6.73572L6.05 6.7219V6.691V3.00018C6.05471 2.36741 6.19912 1.7435 6.4729 1.17301C6.75012 0.619739 7.24209 0.05 8 0.05C8.75811 0.05 9.25012 0.619039 9.52728 1.17336C9.81144 1.7437 9.95 2.43891 9.95 3V6.691V6.7219L9.97764 6.73572L11.9776 7.73572L12.05 7.7719V7.691V7.5C12.05 7.38065 12.0974 7.26619 12.1818 7.1818C12.2662 7.09741 12.3807 7.05 12.5 7.05H13.5C13.6193 7.05 13.7338 7.09741 13.8182 7.1818C13.9026 7.26619 13.95 7.38065 13.95 7.5V8.691V8.7219L13.9776 8.73572L15.1476 9.32072L15.1477 9.32073C15.3887 9.44108 15.5915 9.6262 15.7332 9.85534C15.8749 10.0845 15.95 10.3486 15.95 10.618V12C15.95 12.0654 15.9357 12.13 15.9082 12.1894C15.8807 12.2487 15.8405 12.3013 15.7906 12.3436C15.7406 12.3858 15.6821 12.4166 15.619 12.4339C15.5559 12.4512 15.4898 12.4546 15.4253 12.4437L15.4252 12.4437L13.7952 12.1717L13.7531 12.1647L13.7396 12.2052L13.4266 13.1421C13.3966 13.2315 13.3393 13.3092 13.2627 13.3642C13.1862 13.4193 13.0943 13.4489 13 13.4489C12.9057 13.4489 12.8138 13.4193 12.7373 13.3642C12.6607 13.3092 12.6034 13.2315 12.5734 13.1421L12.1684 11.9282L12.1589 11.8996L12.1292 11.8947L9.91923 11.5257L9.86989 11.5174L9.86168 11.5668L9.48668 13.8198L9.48246 13.8452L9.50064 13.8634L10.8186 15.1814L10.8187 15.1814C10.8818 15.2443 10.9248 15.3246 10.9422 15.412C10.9596 15.4994 10.9507 15.59 10.9166 15.6723C10.8825 15.7546 10.8247 15.825 10.7505 15.8744C10.6764 15.9239 10.5892 15.9502 10.5001 15.95H10.5H5.5H5.49991C5.41079 15.9502 5.32363 15.9239 5.24948 15.8744C5.17533 15.825 5.11753 15.7546 5.0834 15.6723C5.04928 15.59 5.04037 15.4994 5.0578 15.412C5.07523 15.3246 5.11821 15.2443 5.18131 15.1814L5.18136 15.1814L6.49936 13.8634L6.51755 13.8452L6.51332 13.8198L6.13832 11.5668L6.13011 11.5174L6.08077 11.5257L3.87077 11.8947L3.84109 11.8996L3.83157 11.9282L3.4266 13.1421C3.4266 13.1421 3.42659 13.1421 3.42659 13.1421C3.39658 13.2315 3.33926 13.3092 3.26273 13.3642C3.18618 13.4193 3.09428 13.4489 3 13.4489C2.90572 13.4489 2.81382 13.4193 2.73727 13.3642C2.66073 13.3092 2.60341 13.2315 2.5734 13.1421L2.26042 12.2052L2.24689 12.1647L2.20478 12.1717L0.5738 12.4437C0.573792 12.4437 0.573783 12.4437 0.573775 12.4437C0.509346 12.4544 0.443358 12.4509 0.380393 12.4336C0.317421 12.4162 0.258984 12.3854 0.209141 12.3431C0.159298 12.3009 0.119244 12.2484 0.0917626 12.1891C0.0642841 12.1298 0.0500334 12.0653 0.05 12C0.05 12 0.05 12 0.05 12L0.05 10.618C0.0500091 10.3486 0.125083 10.0845 0.266802 9.85534C0.408521 9.6262 0.611279 9.44108 0.852333 9.32073L0.852361 9.32072L2.02236 8.73572L2.05 8.7219V8.691V7.5C2.05 7.38065 2.09741 7.26619 2.1818 7.1818C2.26619 7.09741 2.38065 7.05 2.5 7.05H3.5C3.61935 7.05 3.73381 7.09741 3.8182 7.1818C3.90259 7.26619 3.95 7.38065 3.95 7.5V7.691V7.7719L4.02236 7.73572L6.02236 6.73572Z" stroke="#ACDDA9" stroke-opacity="0.44" stroke-width="0.1"/>
</svg>
