<svg width="77" height="63" viewBox="0 0 77 63" fill="none" xmlns="http://www.w3.org/2000/svg">
<rect x="4" y="4" width="69" height="55" rx="6" stroke="#ACDDA9" stroke-opacity="0.7" stroke-width="8"/>
<path d="M40.6211 18.0617C40.6211 17.5149 40.3107 16.9905 39.7583 16.6038C39.2058 16.2172 38.4565 16 37.6752 16C36.8939 16 36.1446 16.2172 35.5922 16.6038C35.0397 16.9905 34.7294 17.5149 34.7294 18.0617V20.6759L31.4948 19.3688C31.1596 19.2313 30.7889 19.1415 30.404 19.1047C30.0191 19.0678 29.6276 19.0847 29.252 19.1541C28.8764 19.2236 28.5241 19.3444 28.2155 19.5096C27.9069 19.6748 27.648 19.881 27.4537 20.1165C27.2595 20.3519 27.1337 20.612 27.0836 20.8816C27.0336 21.1512 27.0602 21.4251 27.162 21.6875C27.2638 21.9499 27.4387 22.1956 27.6767 22.4105C27.9148 22.6254 28.2112 22.8052 28.5489 22.9396L31.7835 24.2467L28.5489 25.5538C28.2112 25.6881 27.9148 25.868 27.6767 26.0828C27.4387 26.2977 27.2638 26.5434 27.162 26.8058C27.0602 27.0682 27.0336 27.3421 27.0836 27.6117C27.1337 27.8814 27.2595 28.1414 27.4537 28.3769C27.648 28.6123 27.9069 28.8186 28.2155 28.9837C28.5241 29.1489 28.8764 29.2697 29.252 29.3392C29.6276 29.4087 30.0191 29.4255 30.404 29.3887C30.7889 29.3518 31.1596 29.2621 31.4948 29.1246L34.7294 27.8175V30.4317C34.7294 30.9785 35.0397 31.5029 35.5922 31.8895C36.1446 32.2761 36.8939 32.4933 37.6752 32.4933C38.4565 32.4933 39.2058 32.2761 39.7583 31.8895C40.3107 31.5029 40.6211 30.9785 40.6211 30.4317V27.8175L43.8557 29.1246C44.1908 29.2621 44.5615 29.3518 44.9464 29.3887C45.3314 29.4255 45.7229 29.4087 46.0985 29.3392C46.4741 29.2697 46.8263 29.1489 47.1349 28.9837C47.4436 28.8186 47.7024 28.6123 47.8967 28.3769C48.091 28.1414 48.2167 27.8814 48.2668 27.6117C48.3169 27.3421 48.2903 27.0682 48.1885 26.8058C48.0867 26.5434 47.9117 26.2977 47.6737 26.0828C47.4357 25.868 47.1393 25.6881 46.8015 25.5538L43.567 24.2467L46.8015 22.9396C47.1393 22.8052 47.4357 22.6254 47.6737 22.4105C47.9117 22.1956 48.0867 21.9499 48.1885 21.6875C48.2903 21.4251 48.3169 21.1512 48.2668 20.8816C48.2167 20.612 48.091 20.3519 47.8967 20.1165C47.7024 19.881 47.4436 19.6748 47.1349 19.5096C46.8263 19.3444 46.4741 19.2236 46.0985 19.1541C45.7229 19.0847 45.3314 19.0678 44.9464 19.1047C44.5615 19.1415 44.1908 19.2313 43.8557 19.3688L40.6211 20.6759V18.0617ZM22.9459 36.6167C22.1646 36.6167 21.4153 36.8339 20.8628 37.2205C20.3104 37.6072 20 38.1316 20 38.6783C20 39.2251 20.3104 39.7495 20.8628 40.1362C21.4153 40.5228 22.1646 40.74 22.9459 40.74H52.4046C53.1859 40.74 53.9352 40.5228 54.4876 40.1362C55.0401 39.7495 55.3505 39.2251 55.3505 38.6783C55.3505 38.1316 55.0401 37.6072 54.4876 37.2205C53.9352 36.8339 53.1859 36.6167 52.4046 36.6167H22.9459ZM22.9459 44.8633C22.1646 44.8633 21.4153 45.0806 20.8628 45.4672C20.3104 45.8538 20 46.3782 20 46.925C20 47.4718 20.3104 47.9962 20.8628 48.3828C21.4153 48.7695 22.1646 48.9867 22.9459 48.9867H52.4046C53.1859 48.9867 53.9352 48.7695 54.4876 48.3828C55.0401 47.9962 55.3505 47.4718 55.3505 46.925C55.3505 46.3782 55.0401 45.8538 54.4876 45.4672C53.9352 45.0806 53.1859 44.8633 52.4046 44.8633H22.9459Z" fill="#ACDDA9" fill-opacity="0.7"/>
</svg>
