<svg width="16" height="16" viewBox="0 0 16 16" fill="none" xmlns="http://www.w3.org/2000/svg">
<path d="M7.068 0.727C7.311 -0.243 8.688 -0.243 8.932 0.727L9.003 1.013C9.04454 1.17921 9.12981 1.33127 9.24994 1.45341C9.37008 1.57555 9.52071 1.66331 9.68621 1.70759C9.85171 1.75187 10.026 1.75106 10.1911 1.70524C10.3562 1.65942 10.506 1.57025 10.625 1.447L10.83 1.236C11.525 0.517 12.718 1.206 12.443 2.167L12.363 2.451C12.3159 2.61565 12.3137 2.7899 12.3566 2.95568C12.3996 3.12147 12.4861 3.27275 12.6072 3.39384C12.7283 3.51494 12.8795 3.60143 13.0453 3.64436C13.2111 3.6873 13.3854 3.6851 13.55 3.638L13.833 3.557C14.793 3.282 15.483 4.475 14.764 5.17L14.553 5.375C14.4297 5.49399 14.3406 5.6438 14.2948 5.80888C14.2489 5.97396 14.2481 6.14829 14.2924 6.31379C14.3367 6.47929 14.4245 6.62992 14.5466 6.75006C14.6687 6.87019 14.8208 6.95546 14.987 6.997L15.273 7.068C16.243 7.311 16.243 8.688 15.273 8.932L14.987 9.003C14.8208 9.04454 14.6687 9.12981 14.5466 9.24994C14.4245 9.37008 14.3367 9.52071 14.2924 9.68621C14.2481 9.85171 14.2489 10.026 14.2948 10.1911C14.3406 10.3562 14.4297 10.506 14.553 10.625L14.764 10.83C15.483 11.525 14.794 12.718 13.833 12.443L13.549 12.363C13.3844 12.3159 13.2101 12.3137 13.0443 12.3566C12.8785 12.3996 12.7273 12.4861 12.6062 12.6072C12.4851 12.7283 12.3986 12.8795 12.3556 13.0453C12.3127 13.2111 12.3149 13.3854 12.362 13.55L12.443 13.833C12.718 14.793 11.525 15.483 10.83 14.764L10.625 14.553C10.506 14.4297 10.3562 14.3406 10.1911 14.2948C10.026 14.2489 9.85171 14.2481 9.68621 14.2924C9.52071 14.3367 9.37008 14.4245 9.24994 14.5466C9.12981 14.6687 9.04454 14.8208 9.003 14.987L8.932 15.273C8.689 16.243 7.312 16.243 7.068 15.273L6.997 14.987C6.95546 14.8208 6.87019 14.6687 6.75006 14.5466C6.62992 14.4245 6.47929 14.3367 6.31379 14.2924C6.14829 14.2481 5.97396 14.2489 5.80888 14.2948C5.6438 14.3406 5.49399 14.4297 5.375 14.553L5.17 14.764C4.475 15.483 3.282 14.794 3.557 13.833L3.637 13.549C3.68401 13.3845 3.68618 13.2103 3.64329 13.0447C3.60039 12.879 3.51399 12.7278 3.39304 12.6068C3.27208 12.4857 3.12097 12.3992 2.95534 12.3561C2.78971 12.3131 2.61559 12.3151 2.451 12.362L2.167 12.443C1.207 12.718 0.517 11.525 1.236 10.83L1.447 10.625C1.57025 10.506 1.65942 10.3562 1.70524 10.1911C1.75106 10.026 1.75187 9.85171 1.70759 9.68621C1.66331 9.52071 1.57555 9.37008 1.45341 9.24994C1.33127 9.12981 1.17921 9.04454 1.013 9.003L0.727 8.932C-0.243 8.689 -0.243 7.312 0.727 7.068L1.013 6.997C1.17921 6.95546 1.33127 6.87019 1.45341 6.75006C1.57555 6.62992 1.66331 6.47929 1.70759 6.31379C1.75187 6.14829 1.75106 5.97396 1.70524 5.80888C1.65942 5.6438 1.57025 5.49399 1.447 5.375L1.236 5.17C0.517 4.475 1.206 3.282 2.167 3.557L2.451 3.637C2.61555 3.68401 2.78967 3.68618 2.95533 3.64329C3.121 3.60039 3.27219 3.51399 3.39324 3.39304C3.5143 3.27208 3.60083 3.12097 3.64386 2.95534C3.68689 2.78971 3.68487 2.61559 3.638 2.451L3.557 2.167C3.282 1.207 4.475 0.517 5.17 1.236L5.375 1.447C5.49399 1.57025 5.6438 1.65942 5.80888 1.70524C5.97396 1.75106 6.14829 1.75187 6.31379 1.70759C6.47929 1.66331 6.62992 1.57555 6.75006 1.45341C6.87019 1.33127 6.95546 1.17921 6.997 1.013L7.068 0.727ZM12.973 8.5H8.25L5.416 12.279C6.13788 12.715 6.95834 12.9613 7.801 12.9948C8.64367 13.0284 9.48112 12.8482 10.2354 12.471C10.9897 12.0938 11.6363 11.5319 12.1149 10.8376C12.5936 10.1433 12.8888 9.33911 12.973 8.5ZM12.973 7.5C12.8888 6.66089 12.5936 5.85673 12.1149 5.1624C11.6363 4.46808 10.9897 3.90616 10.2354 3.52897C9.48112 3.15178 8.64367 2.97159 7.801 3.00516C6.95834 3.03874 6.13788 3.28499 5.416 3.721L8.25 7.501L12.973 7.5ZM5.048 3.967C5.018 3.988 4.99 4.01 4.961 4.032L5.048 3.967ZM4.617 4.322C4.10736 4.78947 3.70059 5.35788 3.42255 5.99109C3.14451 6.6243 3.00129 7.30844 3.002 8C3.002 9.455 3.624 10.765 4.617 11.678L7.375 8L4.617 4.322Z" fill="#DCDCDC"/>
</svg>
