<svg width="16" height="16" viewBox="0 0 16 16" fill="none" xmlns="http://www.w3.org/2000/svg">
<g clip-path="url(#clip0_5_16)">
<path d="M4 15C3.73478 15 3.48043 14.8946 3.29289 14.7071C3.10536 14.5196 3 14.2652 3 14C3 13.7348 3.10536 13.4804 3.29289 13.2929C3.48043 13.1054 3.73478 13 4 13C4.26522 13 4.51957 13.1054 4.70711 13.2929C4.89464 13.4804 5 13.7348 5 14C5 14.2652 4.89464 14.5196 4.70711 14.7071C4.51957 14.8946 4.26522 15 4 15ZM4 16C4.53043 16 5.03914 15.7893 5.41421 15.4142C5.78929 15.0391 6 14.5304 6 14C6 13.4696 5.78929 12.9609 5.41421 12.5858C5.03914 12.2107 4.53043 12 4 12C3.46957 12 2.96086 12.2107 2.58579 12.5858C2.21071 12.9609 2 13.4696 2 14C2 14.5304 2.21071 15.0391 2.58579 15.4142C2.96086 15.7893 3.46957 16 4 16ZM12 15C11.7348 15 11.4804 14.8946 11.2929 14.7071C11.1054 14.5196 11 14.2652 11 14C11 13.7348 11.1054 13.4804 11.2929 13.2929C11.4804 13.1054 11.7348 13 12 13C12.2652 13 12.5196 13.1054 12.7071 13.2929C12.8946 13.4804 13 13.7348 13 14C13 14.2652 12.8946 14.5196 12.7071 14.7071C12.5196 14.8946 12.2652 15 12 15ZM12 16C12.5304 16 13.0391 15.7893 13.4142 15.4142C13.7893 15.0391 14 14.5304 14 14C14 13.4696 13.7893 12.9609 13.4142 12.5858C13.0391 12.2107 12.5304 12 12 12C11.4696 12 10.9609 12.2107 10.5858 12.5858C10.2107 12.9609 10 13.4696 10 14C10 14.5304 10.2107 15.0391 10.5858 15.4142C10.9609 15.7893 11.4696 16 12 16ZM0.115 3.18C0.162012 3.12356 0.220881 3.07817 0.287423 3.04706C0.353965 3.01595 0.426545 2.99988 0.5 3H15.5C15.5734 3.00007 15.6459 3.0163 15.7124 3.04755C15.7788 3.0788 15.8375 3.12429 15.8844 3.1808C15.9313 3.23731 15.9651 3.30345 15.9835 3.37452C16.002 3.44558 16.0045 3.51984 15.991 3.592L14.491 11.592C14.4696 11.7066 14.4087 11.8101 14.3191 11.8846C14.2294 11.9591 14.1166 11.9999 14 12H2C1.88343 11.9999 1.77057 11.9591 1.68091 11.8846C1.59126 11.8101 1.53045 11.7066 1.509 11.592L0.00900012 3.592C-0.00456108 3.51991 -0.00209483 3.44572 0.016224 3.37469C0.0345427 3.30367 0.0682654 3.23654 0.115 3.18ZM1.102 4L2.415 11H13.585L14.898 4H1.102Z" fill="#DCDCDC"/>
<path fill-rule="evenodd" clip-rule="evenodd" d="M6 1C6.23262 0.689149 6.5345 0.436799 6.88167 0.262982C7.22884 0.0891643 7.61175 -0.0013361 8 -0.0013361C8.38825 -0.0013361 8.77116 0.0891643 9.11833 0.262982C9.4655 0.436799 9.76738 0.689149 10 1C10.818 1 11.545 1.394 12 2C12.67 2 13.552 2.57 14 3H12C11.686 3 11.389 2.85 11.2 2.6C10.926 2.235 10.49 2 10 2C9.686 2 9.389 1.85 9.2 1.6C9.06065 1.41316 8.8796 1.26145 8.67127 1.15693C8.46294 1.05242 8.23308 0.997991 8 0.997991C7.76692 0.997991 7.53706 1.05242 7.32873 1.15693C7.1204 1.26145 6.93935 1.41316 6.8 1.6C6.611 1.85 6.314 2 6 2C5.493 2 5.045 2.251 4.772 2.638C4.682 2.768 4.578 2.888 4.464 3H3C3.13 2.853 3.401 2.568 3.562 2.455C3.71453 2.34746 3.84746 2.21453 3.955 2.062C4.18557 1.73381 4.49178 1.46596 4.84773 1.28111C5.20368 1.09626 5.59891 0.999838 6 1Z" fill="#DCDCDC"/>
</g>
<defs>
<clipPath id="clip0_5_16">
<rect width="16" height="16" fill="white"/>
</clipPath>
</defs>
</svg>
